<svg width="142" height="136" viewBox="0 0 142 136" fill="none" xmlns="http://www.w3.org/2000/svg">
<g clip-path="url(#clip0_405:2050)">
<rect width="142" height="136" rx="25" fill="black"/>
<path d="M56.592 48.408H62.472L67.4 61.904L72.384 48.408H78.264L71.432 66.104L77.368 80.72L89.744 48.24H96.632L80.336 88H74.904L67.456 70.192L59.952 88H54.464L38.224 48.24H45.056L57.488 80.72L63.424 66.104L56.592 48.408ZM103.844 48.24L115.828 80.328L127.756 48.24H134.42L118.796 88H112.86L97.1798 48.24H103.844Z" fill="white"/>
<path d="M6.72232 104.562V106.062H8.22232H16.0002C19.5716 106.062 22.2168 108.618 22.2771 111.493C22.2628 111.497 22.2447 111.5 22.2225 111.5H-18.2225C-18.2447 111.5 -18.2628 111.497 -18.2771 111.493C-18.2168 108.618 -15.5716 106.062 -12.0002 106.062H-4.22232H-2.72232V104.562V83.9645V82.7465L-3.91433 82.4964C-16.619 79.831 -25.5953 69.1689 -24.3911 57.014C-24.3911 57.014 -24.3911 57.0139 -24.3911 57.0139L-21.2877 25.7056L-21.2875 25.7039C-21.231 25.1272 -20.6493 24.5 -19.7276 24.5H23.7276C24.6499 24.5 25.2318 25.1263 25.2896 25.7055C25.2896 25.7056 25.2897 25.7058 25.2897 25.7059L28.3911 57.0121L29.8838 56.8643L28.3911 57.0121C29.5953 69.1671 20.619 79.8293 7.91433 82.4947L6.72232 82.7447V83.9627V104.562ZM-13.9933 29.9375H-15.3519L-15.486 31.2895L-16.8802 45.352L-17.0436 47H-15.3875H19.3875H21.0436L20.8802 45.352L19.486 31.2895L19.3519 29.9375H17.9933H-13.9933Z" stroke="#C7158C" stroke-width="3"/>
</g>
<defs>
<clipPath id="clip0_405:2050">
<rect width="142" height="136" rx="25" fill="white"/>
</clipPath>
</defs>
</svg>
