<svg width="81" height="93" viewBox="0 0 81 93" fill="none" xmlns="http://www.w3.org/2000/svg">
<path fill-rule="evenodd" clip-rule="evenodd" d="M69.0938 12.5H71.5547C76.5302 12.5 80.5781 16.3551 80.5781 21.0938V33.5938C80.5781 38.3324 76.5302 42.1875 71.5547 42.1875H55.1995C52.5187 42.1875 49.9409 41.442 47.7485 40.1105C47.6094 41.2791 46.569 42.1875 45.3047 42.1875H35.4609C34.1019 42.1875 33 41.1382 33 39.8438V14.8438C33 13.5493 34.1019 12.5 35.4609 12.5H45.3047C46.6638 12.5 47.7656 13.5493 47.7656 14.8438V14.8616L50.1634 14.2091C52.6157 13.5419 54.3281 11.3795 54.3281 8.95081V7.03125C54.3281 3.15417 57.6401 0 61.7109 0C65.7818 0 69.0938 3.15417 69.0938 7.03125V12.5ZM37.9219 37.5H42.8438V17.1875H37.9219V37.5ZM71.5547 37.5C73.8163 37.5 75.6562 35.7477 75.6562 33.5938V21.0938C75.6562 18.9398 73.8163 17.1875 71.5547 17.1875H66.6328C65.2737 17.1875 64.1719 16.1382 64.1719 14.8438V7.03125C64.1719 5.73889 63.0679 4.6875 61.7109 4.6875C60.354 4.6875 59.25 5.73889 59.25 7.03125V8.95081C59.25 13.4614 56.0695 17.4772 51.5154 18.7164L47.7656 19.7367V33.7115C49.4128 36.0624 52.2073 37.5 55.1995 37.5H71.5547Z" fill="white"/>
<path fill-rule="evenodd" clip-rule="evenodd" d="M35.2734 50H45.1172C46.4763 50 47.5781 51.0493 47.5781 52.3438V77.3438C47.5781 78.6382 46.4763 79.6875 45.1172 79.6875H35.2734C33.9144 79.6875 32.8125 78.6382 32.8125 77.3438V77.3259L30.4147 77.9784C27.9625 78.6456 26.25 80.808 26.25 83.2367V85.1562C26.25 89.0333 22.938 92.1875 18.8672 92.1875C14.7963 92.1875 11.4844 89.0333 11.4844 85.1562V79.6875H9.02344C4.04791 79.6875 0 75.8324 0 71.0938V58.5938C0 53.8551 4.04791 50 9.02344 50H25.3785C28.0594 50 30.6372 50.7455 32.8296 52.077C32.9687 50.9084 34.0092 50 35.2734 50ZM21.3281 83.2367C21.3281 78.7261 24.5087 74.7103 29.0625 73.4712L32.8125 72.4508V58.476C31.1652 56.1251 28.3707 54.6875 25.3785 54.6875H9.02344C6.76184 54.6875 4.92188 56.4398 4.92188 58.5938V71.0938C4.92188 73.2477 6.76184 75 9.02344 75H13.9453C15.3044 75 16.4062 76.0493 16.4062 77.3438V85.1562C16.4062 86.4486 17.5103 87.5 18.8672 87.5C20.2241 87.5 21.3281 86.4486 21.3281 85.1562V83.2367ZM37.7344 75H42.6562V54.6875H37.7344V75Z" fill="white"/>
</svg>
