<svg width="88" height="90" viewBox="0 0 88 90" fill="none" xmlns="http://www.w3.org/2000/svg">
<path d="M43.0833 19.9614V22.0114L21.3728 31.8251L43.0833 41.5825V43.6305L19.7933 33.1632L19.756 57.4248L43.0833 68.0694V70.1226L17.9208 58.6406L17.9628 31.3165L43.0833 19.9614Z" fill="white"/>
<path fill-rule="evenodd" clip-rule="evenodd" d="M0 9.375C0 4.19733 4.10406 0 9.16667 0H37.5833C42.6459 0 46.75 4.19733 46.75 9.375V80.625C46.75 85.8027 42.6459 90 37.5833 90H9.16667C4.10406 90 0 85.8027 0 80.625V9.375ZM33.9167 1.875H37.5833C41.6334 1.875 44.9167 5.23286 44.9167 9.375V80.625C44.9167 84.7671 41.6334 88.125 37.5833 88.125H9.16667C5.11658 88.125 1.83333 84.7671 1.83333 80.625V9.375C1.83333 5.23287 5.11658 1.875 9.16667 1.875H13.75V3.75C13.75 4.78553 14.5708 5.625 15.5833 5.625H32.0833C33.0959 5.625 33.9167 4.78553 33.9167 3.75V1.875ZM15.125 2.34375H32.5417V3.75C32.5417 4.00888 32.3365 4.21875 32.0833 4.21875H15.5833C15.3302 4.21875 15.125 4.00888 15.125 3.75V2.34375Z" fill="white"/>
<path d="M48.5833 22.0244L70.2075 31.743L48.5833 41.5176V43.5675L71.7802 33.082L71.7426 57.5913L48.5833 67.9983V70.0463L73.574 58.8164L73.6164 31.227L48.5833 19.9764V22.0244Z" fill="white"/>
<path d="M63.4845 21.0691C63.2555 21.3788 63.3154 21.8198 63.6183 22.054C63.9211 22.2882 64.3523 22.227 64.5813 21.9172L69.2805 15.5609C69.5095 15.2511 69.4496 14.8102 69.1468 14.5759C68.8439 14.3417 68.4128 14.403 68.1838 14.7127L63.4845 21.0691Z" fill="white"/>
<path d="M78.8333 44.2969C78.8333 43.9085 79.1411 43.5938 79.5208 43.5938H87.3125C87.6922 43.5938 88 43.9085 88 44.2969C88 44.6852 87.6922 45 87.3125 45H79.5208C79.1411 45 78.8333 44.6852 78.8333 44.2969Z" fill="white"/>
<path d="M66.7709 75.8717C66.9424 76.2181 67.3561 76.3567 67.6948 76.1813C68.0335 76.0059 68.1691 75.5828 67.9975 75.2364L64.4773 68.1273C64.3057 67.7808 63.8921 67.6422 63.5533 67.8177C63.2146 67.9931 63.0791 68.4162 63.2506 68.7626L66.7709 75.8717Z" fill="white"/>
</svg>
