<svg width="88" height="71" viewBox="0 0 88 71" fill="none" xmlns="http://www.w3.org/2000/svg">
<path d="M44 65.875C27.6921 65.875 14.24 54.8907 11.5962 40.5625H16.5L8.25008 30.4376L-7.62939e-06 40.5624H5.94538C8.62866 57.7071 24.646 70.9374 44 70.9374C57.9104 70.9374 70.0864 64.0874 76.8523 53.8817L73.2661 49.4804C67.759 59.2078 56.7191 65.8749 44 65.875Z" fill="white"/>
<path d="M44 0.0623779C30.0895 0.0623779 17.9136 6.91239 11.1477 17.118L14.7339 21.5194C20.241 11.792 31.2808 5.12493 44 5.12493C60.3124 5.12493 73.8036 16.1036 76.4413 30.4374H71.4996L79.7496 40.5624L88 30.4374H82.0506C79.367 13.294 63.3538 0.0625249 44 0.0623779Z" fill="white"/>
</svg>
