<svg width="90" height="83" viewBox="0 0 90 83" fill="none" xmlns="http://www.w3.org/2000/svg">
<mask id="path-1-outside-1" maskUnits="userSpaceOnUse" x="0" y="0" width="90" height="83" fill="black">
<rect fill="white" width="90" height="83"/>
<path fill-rule="evenodd" clip-rule="evenodd" d="M52.9496 8.18722C52.9496 12.1566 49.6387 15.3744 45.5546 15.3744C41.4705 15.3744 38.1597 12.1566 38.1597 8.18722C38.1597 4.21783 41.4705 1 45.5546 1C49.6387 1 52.9496 4.21783 52.9496 8.18722ZM52.2101 8.18722C52.2101 11.7597 49.2303 14.6557 45.5546 14.6557C41.8789 14.6557 38.8992 11.7597 38.8992 8.18722C38.8992 4.61477 41.8789 1.71872 45.5546 1.71872C49.2303 1.71872 52.2101 4.61477 52.2101 8.18722Z"/>
<path fill-rule="evenodd" clip-rule="evenodd" d="M34.8319 38.0142H39.6387V53.4667C39.6387 56.4438 42.1218 58.8571 45.1849 58.8571C48.248 58.8571 50.7311 56.4438 50.7311 53.4667V38.0142H55.1681C58.2312 38.0142 60.7143 35.6008 60.7143 32.6238V21.8429C60.7143 18.8659 58.2312 16.4525 55.1681 16.4525H34.8319C31.7688 16.4525 29.2857 18.8659 29.2857 21.8429V32.6238C29.2857 35.6008 31.7688 38.0142 34.8319 38.0142ZM55.1681 17.1713H34.8319C32.1773 17.1713 30.0252 19.2628 30.0252 21.8429V32.6238C30.0252 35.2039 32.1773 37.2955 34.8319 37.2955H40.3782V53.4667C40.3782 56.0468 42.5302 58.1384 45.1849 58.1384C47.8396 58.1384 49.9916 56.0468 49.9916 53.4667V37.2955H55.1681C57.8228 37.2955 59.9748 35.2039 59.9748 32.6238V21.8429C59.9748 19.2628 57.8228 17.1713 55.1681 17.1713Z"/>
<path fill-rule="evenodd" clip-rule="evenodd" d="M24.6639 31.3301C24.6639 35.2995 21.353 38.5173 17.2689 38.5173C13.1848 38.5173 9.87395 35.2995 9.87395 31.3301C9.87395 27.3607 13.1848 24.1429 17.2689 24.1429C21.353 24.1429 24.6639 27.3607 24.6639 31.3301ZM23.9244 31.3301C23.9244 34.9025 20.9446 37.7986 17.2689 37.7986C13.5932 37.7986 10.6134 34.9025 10.6134 31.3301C10.6134 27.7576 13.5932 24.8616 17.2689 24.8616C20.9446 24.8616 23.9244 27.7576 23.9244 31.3301Z"/>
<path fill-rule="evenodd" clip-rule="evenodd" d="M6.54622 61.1571H11.3529V76.6096C11.3529 79.5866 13.8361 82 16.8992 82C19.9623 82 22.4454 79.5866 22.4454 76.6096V61.1571H26.8824C29.9454 61.1571 32.4286 58.7437 32.4286 55.7666V44.9858C32.4286 42.0088 29.9454 39.5954 26.8824 39.5954H6.54622C3.48313 39.5954 1 42.0088 1 44.9858V55.7666C1 58.7437 3.48313 61.1571 6.54622 61.1571ZM26.8824 40.3141H6.54622C3.89154 40.3141 1.7395 42.4057 1.7395 44.9858V55.7666C1.7395 58.3467 3.89154 60.4383 6.54622 60.4383H12.0924V76.6096C12.0924 79.1897 14.2445 81.2813 16.8992 81.2813C19.5538 81.2813 21.7059 79.1897 21.7059 76.6096V60.4383H26.8824C29.537 60.4383 31.6891 58.3467 31.6891 55.7666V44.9858C31.6891 42.4057 29.537 40.3141 26.8824 40.3141Z"/>
<path fill-rule="evenodd" clip-rule="evenodd" d="M73.8403 38.5173C77.9245 38.5173 81.2353 35.2995 81.2353 31.3301C81.2353 27.3607 77.9245 24.1429 73.8403 24.1429C69.7562 24.1429 66.4454 27.3607 66.4454 31.3301C66.4454 35.2995 69.7562 38.5173 73.8403 38.5173ZM73.8403 37.7986C77.516 37.7986 80.4958 34.9025 80.4958 31.3301C80.4958 27.7576 77.516 24.8616 73.8403 24.8616C70.1646 24.8616 67.1849 27.7576 67.1849 31.3301C67.1849 34.9025 70.1646 37.7986 73.8403 37.7986Z"/>
<path fill-rule="evenodd" clip-rule="evenodd" d="M67.9244 61.1571H63.1176C60.0546 61.1571 57.5714 58.7437 57.5714 55.7666V44.9858C57.5714 42.0088 60.0546 39.5954 63.1176 39.5954H83.4538C86.5169 39.5954 89 42.0088 89 44.9858V55.7666C89 58.7437 86.5169 61.1571 83.4538 61.1571H79.0168V76.6096C79.0168 79.5866 76.5337 82 73.4706 82C70.4075 82 67.9244 79.5866 67.9244 76.6096V61.1571ZM63.1176 40.3141H83.4538C86.1085 40.3141 88.2605 42.4057 88.2605 44.9858V55.7666C88.2605 58.3467 86.1085 60.4383 83.4538 60.4383H78.2773V76.6096C78.2773 79.1897 76.1253 81.2813 73.4706 81.2813C70.8159 81.2813 68.6639 79.1897 68.6639 76.6096V60.4383H63.1176C60.463 60.4383 58.3109 58.3467 58.3109 55.7666V44.9858C58.3109 42.4057 60.463 40.3141 63.1176 40.3141Z"/>
</mask>
<path fill-rule="evenodd" clip-rule="evenodd" d="M52.9496 8.18722C52.9496 12.1566 49.6387 15.3744 45.5546 15.3744C41.4705 15.3744 38.1597 12.1566 38.1597 8.18722C38.1597 4.21783 41.4705 1 45.5546 1C49.6387 1 52.9496 4.21783 52.9496 8.18722ZM52.2101 8.18722C52.2101 11.7597 49.2303 14.6557 45.5546 14.6557C41.8789 14.6557 38.8992 11.7597 38.8992 8.18722C38.8992 4.61477 41.8789 1.71872 45.5546 1.71872C49.2303 1.71872 52.2101 4.61477 52.2101 8.18722Z" fill="white"/>
<path fill-rule="evenodd" clip-rule="evenodd" d="M34.8319 38.0142H39.6387V53.4667C39.6387 56.4438 42.1218 58.8571 45.1849 58.8571C48.248 58.8571 50.7311 56.4438 50.7311 53.4667V38.0142H55.1681C58.2312 38.0142 60.7143 35.6008 60.7143 32.6238V21.8429C60.7143 18.8659 58.2312 16.4525 55.1681 16.4525H34.8319C31.7688 16.4525 29.2857 18.8659 29.2857 21.8429V32.6238C29.2857 35.6008 31.7688 38.0142 34.8319 38.0142ZM55.1681 17.1713H34.8319C32.1773 17.1713 30.0252 19.2628 30.0252 21.8429V32.6238C30.0252 35.2039 32.1773 37.2955 34.8319 37.2955H40.3782V53.4667C40.3782 56.0468 42.5302 58.1384 45.1849 58.1384C47.8396 58.1384 49.9916 56.0468 49.9916 53.4667V37.2955H55.1681C57.8228 37.2955 59.9748 35.2039 59.9748 32.6238V21.8429C59.9748 19.2628 57.8228 17.1713 55.1681 17.1713Z" fill="white"/>
<path fill-rule="evenodd" clip-rule="evenodd" d="M24.6639 31.3301C24.6639 35.2995 21.353 38.5173 17.2689 38.5173C13.1848 38.5173 9.87395 35.2995 9.87395 31.3301C9.87395 27.3607 13.1848 24.1429 17.2689 24.1429C21.353 24.1429 24.6639 27.3607 24.6639 31.3301ZM23.9244 31.3301C23.9244 34.9025 20.9446 37.7986 17.2689 37.7986C13.5932 37.7986 10.6134 34.9025 10.6134 31.3301C10.6134 27.7576 13.5932 24.8616 17.2689 24.8616C20.9446 24.8616 23.9244 27.7576 23.9244 31.3301Z" fill="white"/>
<path fill-rule="evenodd" clip-rule="evenodd" d="M6.54622 61.1571H11.3529V76.6096C11.3529 79.5866 13.8361 82 16.8992 82C19.9623 82 22.4454 79.5866 22.4454 76.6096V61.1571H26.8824C29.9454 61.1571 32.4286 58.7437 32.4286 55.7666V44.9858C32.4286 42.0088 29.9454 39.5954 26.8824 39.5954H6.54622C3.48313 39.5954 1 42.0088 1 44.9858V55.7666C1 58.7437 3.48313 61.1571 6.54622 61.1571ZM26.8824 40.3141H6.54622C3.89154 40.3141 1.7395 42.4057 1.7395 44.9858V55.7666C1.7395 58.3467 3.89154 60.4383 6.54622 60.4383H12.0924V76.6096C12.0924 79.1897 14.2445 81.2813 16.8992 81.2813C19.5538 81.2813 21.7059 79.1897 21.7059 76.6096V60.4383H26.8824C29.537 60.4383 31.6891 58.3467 31.6891 55.7666V44.9858C31.6891 42.4057 29.537 40.3141 26.8824 40.3141Z" fill="white"/>
<path fill-rule="evenodd" clip-rule="evenodd" d="M73.8403 38.5173C77.9245 38.5173 81.2353 35.2995 81.2353 31.3301C81.2353 27.3607 77.9245 24.1429 73.8403 24.1429C69.7562 24.1429 66.4454 27.3607 66.4454 31.3301C66.4454 35.2995 69.7562 38.5173 73.8403 38.5173ZM73.8403 37.7986C77.516 37.7986 80.4958 34.9025 80.4958 31.3301C80.4958 27.7576 77.516 24.8616 73.8403 24.8616C70.1646 24.8616 67.1849 27.7576 67.1849 31.3301C67.1849 34.9025 70.1646 37.7986 73.8403 37.7986Z" fill="white"/>
<path fill-rule="evenodd" clip-rule="evenodd" d="M67.9244 61.1571H63.1176C60.0546 61.1571 57.5714 58.7437 57.5714 55.7666V44.9858C57.5714 42.0088 60.0546 39.5954 63.1176 39.5954H83.4538C86.5169 39.5954 89 42.0088 89 44.9858V55.7666C89 58.7437 86.5169 61.1571 83.4538 61.1571H79.0168V76.6096C79.0168 79.5866 76.5337 82 73.4706 82C70.4075 82 67.9244 79.5866 67.9244 76.6096V61.1571ZM63.1176 40.3141H83.4538C86.1085 40.3141 88.2605 42.4057 88.2605 44.9858V55.7666C88.2605 58.3467 86.1085 60.4383 83.4538 60.4383H78.2773V76.6096C78.2773 79.1897 76.1253 81.2813 73.4706 81.2813C70.8159 81.2813 68.6639 79.1897 68.6639 76.6096V60.4383H63.1176C60.463 60.4383 58.3109 58.3467 58.3109 55.7666V44.9858C58.3109 42.4057 60.463 40.3141 63.1176 40.3141Z" fill="white"/>
<path fill-rule="evenodd" clip-rule="evenodd" d="M52.9496 8.18722C52.9496 12.1566 49.6387 15.3744 45.5546 15.3744C41.4705 15.3744 38.1597 12.1566 38.1597 8.18722C38.1597 4.21783 41.4705 1 45.5546 1C49.6387 1 52.9496 4.21783 52.9496 8.18722ZM52.2101 8.18722C52.2101 11.7597 49.2303 14.6557 45.5546 14.6557C41.8789 14.6557 38.8992 11.7597 38.8992 8.18722C38.8992 4.61477 41.8789 1.71872 45.5546 1.71872C49.2303 1.71872 52.2101 4.61477 52.2101 8.18722Z" stroke="white" stroke-width="1.6" mask="url(#path-1-outside-1)"/>
<path fill-rule="evenodd" clip-rule="evenodd" d="M34.8319 38.0142H39.6387V53.4667C39.6387 56.4438 42.1218 58.8571 45.1849 58.8571C48.248 58.8571 50.7311 56.4438 50.7311 53.4667V38.0142H55.1681C58.2312 38.0142 60.7143 35.6008 60.7143 32.6238V21.8429C60.7143 18.8659 58.2312 16.4525 55.1681 16.4525H34.8319C31.7688 16.4525 29.2857 18.8659 29.2857 21.8429V32.6238C29.2857 35.6008 31.7688 38.0142 34.8319 38.0142ZM55.1681 17.1713H34.8319C32.1773 17.1713 30.0252 19.2628 30.0252 21.8429V32.6238C30.0252 35.2039 32.1773 37.2955 34.8319 37.2955H40.3782V53.4667C40.3782 56.0468 42.5302 58.1384 45.1849 58.1384C47.8396 58.1384 49.9916 56.0468 49.9916 53.4667V37.2955H55.1681C57.8228 37.2955 59.9748 35.2039 59.9748 32.6238V21.8429C59.9748 19.2628 57.8228 17.1713 55.1681 17.1713Z" stroke="white" stroke-width="1.6" mask="url(#path-1-outside-1)"/>
<path fill-rule="evenodd" clip-rule="evenodd" d="M24.6639 31.3301C24.6639 35.2995 21.353 38.5173 17.2689 38.5173C13.1848 38.5173 9.87395 35.2995 9.87395 31.3301C9.87395 27.3607 13.1848 24.1429 17.2689 24.1429C21.353 24.1429 24.6639 27.3607 24.6639 31.3301ZM23.9244 31.3301C23.9244 34.9025 20.9446 37.7986 17.2689 37.7986C13.5932 37.7986 10.6134 34.9025 10.6134 31.3301C10.6134 27.7576 13.5932 24.8616 17.2689 24.8616C20.9446 24.8616 23.9244 27.7576 23.9244 31.3301Z" stroke="white" stroke-width="1.6" mask="url(#path-1-outside-1)"/>
<path fill-rule="evenodd" clip-rule="evenodd" d="M6.54622 61.1571H11.3529V76.6096C11.3529 79.5866 13.8361 82 16.8992 82C19.9623 82 22.4454 79.5866 22.4454 76.6096V61.1571H26.8824C29.9454 61.1571 32.4286 58.7437 32.4286 55.7666V44.9858C32.4286 42.0088 29.9454 39.5954 26.8824 39.5954H6.54622C3.48313 39.5954 1 42.0088 1 44.9858V55.7666C1 58.7437 3.48313 61.1571 6.54622 61.1571ZM26.8824 40.3141H6.54622C3.89154 40.3141 1.7395 42.4057 1.7395 44.9858V55.7666C1.7395 58.3467 3.89154 60.4383 6.54622 60.4383H12.0924V76.6096C12.0924 79.1897 14.2445 81.2813 16.8992 81.2813C19.5538 81.2813 21.7059 79.1897 21.7059 76.6096V60.4383H26.8824C29.537 60.4383 31.6891 58.3467 31.6891 55.7666V44.9858C31.6891 42.4057 29.537 40.3141 26.8824 40.3141Z" stroke="white" stroke-width="1.6" mask="url(#path-1-outside-1)"/>
<path fill-rule="evenodd" clip-rule="evenodd" d="M73.8403 38.5173C77.9245 38.5173 81.2353 35.2995 81.2353 31.3301C81.2353 27.3607 77.9245 24.1429 73.8403 24.1429C69.7562 24.1429 66.4454 27.3607 66.4454 31.3301C66.4454 35.2995 69.7562 38.5173 73.8403 38.5173ZM73.8403 37.7986C77.516 37.7986 80.4958 34.9025 80.4958 31.3301C80.4958 27.7576 77.516 24.8616 73.8403 24.8616C70.1646 24.8616 67.1849 27.7576 67.1849 31.3301C67.1849 34.9025 70.1646 37.7986 73.8403 37.7986Z" stroke="white" stroke-width="1.6" mask="url(#path-1-outside-1)"/>
<path fill-rule="evenodd" clip-rule="evenodd" d="M67.9244 61.1571H63.1176C60.0546 61.1571 57.5714 58.7437 57.5714 55.7666V44.9858C57.5714 42.0088 60.0546 39.5954 63.1176 39.5954H83.4538C86.5169 39.5954 89 42.0088 89 44.9858V55.7666C89 58.7437 86.5169 61.1571 83.4538 61.1571H79.0168V76.6096C79.0168 79.5866 76.5337 82 73.4706 82C70.4075 82 67.9244 79.5866 67.9244 76.6096V61.1571ZM63.1176 40.3141H83.4538C86.1085 40.3141 88.2605 42.4057 88.2605 44.9858V55.7666C88.2605 58.3467 86.1085 60.4383 83.4538 60.4383H78.2773V76.6096C78.2773 79.1897 76.1253 81.2813 73.4706 81.2813C70.8159 81.2813 68.6639 79.1897 68.6639 76.6096V60.4383H63.1176C60.463 60.4383 58.3109 58.3467 58.3109 55.7666V44.9858C58.3109 42.4057 60.463 40.3141 63.1176 40.3141Z" stroke="white" stroke-width="1.6" mask="url(#path-1-outside-1)"/>
</svg>
