<svg width="96" height="71" viewBox="0 0 96 71" fill="none" xmlns="http://www.w3.org/2000/svg">
<path fill-rule="evenodd" clip-rule="evenodd" d="M18.0909 21.125V3.875C18.0909 2.28718 19.0474 1 20.2273 1H69.7909C71.6753 1 75.1615 1.89221 78.1874 4.0238C80.3488 5.54643 82.3346 7.74838 83.2913 10.775H95V19.4H83.4579C82.5812 22.7248 80.4834 25.1088 78.1874 26.7262C76.7952 27.7069 75.3056 28.4253 73.9194 28.9151C74.2436 29.5331 74.5227 30.1941 74.7459 30.9H86.4546V39.525H74.9124C74.0357 42.8498 71.9379 45.2338 69.6419 46.8512C68.2497 47.8319 66.7601 48.5503 65.3739 49.0401C65.6982 49.6581 65.9773 50.3191 66.2004 51.025H77.9091V59.65H66.367C65.4903 62.9748 63.3925 65.3588 61.0965 66.9762C58.0706 69.1078 54.5844 70 52.7 70H3.13636C1.95648 70 1 68.7128 1 67.125V44.125C1 42.5372 1.95648 41.25 3.13636 41.25H9.54545V24C9.54545 22.4122 10.5019 21.125 11.6818 21.125H18.0909ZM20.2273 2.15H31.7636V14.8H60.8182V2.15H69.7909C71.5384 2.15 74.8885 2.99792 77.791 5.04265C80.6958 7.08894 83.0364 10.242 83.0364 14.8V15.95C83.0364 20.508 80.6958 23.6611 77.791 25.7073C76.3337 26.734 74.7636 27.4589 73.3401 27.9263C72.3261 26.366 71.0197 25.1194 69.6419 24.1488C66.6161 22.0172 63.1298 21.125 61.2455 21.125H18.9455V3.875C18.9455 2.92231 19.5193 2.15 20.2273 2.15ZM10.4 41.25H52.7C54.5844 41.25 58.0706 42.1422 61.0965 44.2738C62.4742 45.2444 63.7806 46.491 64.7946 48.0513C66.2181 47.5839 67.7883 46.859 69.2456 45.8324C72.1504 43.7861 74.4909 40.633 74.4909 36.075V34.925C74.4909 30.367 72.1504 27.2139 69.2456 25.1677C66.343 23.1229 62.9929 22.275 61.2455 22.275H52.2727V34.925H23.2182V22.275H11.6818C10.9739 22.275 10.4 23.0473 10.4 24V41.25ZM83.8909 14.8C83.8909 13.7753 83.7863 12.818 83.5951 11.925H94.1455V18.25H83.7046C83.8259 17.5243 83.8909 16.7581 83.8909 15.95V14.8ZM32.6182 13.65V2.15H39.8818V6.75H40.7364V2.15H45.8636V7.9H46.7182V2.15H51.8455V9.625H52.7V2.15H59.9636V13.65H32.6182ZM14.6727 42.4H3.13636C2.42844 42.4 1.85455 43.1723 1.85455 44.125V67.125C1.85455 68.0777 2.42844 68.85 3.13636 68.85H52.7C54.4475 68.85 57.7976 68.0021 60.7001 65.9574C63.6049 63.9111 65.9455 60.758 65.9455 56.2V55.05C65.9455 50.492 63.6049 47.3389 60.7001 45.2926C57.7976 43.2479 54.4475 42.4 52.7 42.4H43.7273V55.05H14.6727V42.4ZM66.5042 52.175C66.6954 53.068 66.8 54.0253 66.8 55.05V56.2C66.8 57.0081 66.7349 57.7743 66.6137 58.5H77.0545V52.175H66.5042ZM15.5273 42.4V53.9H42.8727V42.4H35.6091V49.875H34.7545V42.4H29.6273V48.15H28.7727V42.4H23.6455V47H22.7909V42.4H15.5273ZM75.0497 32.05C75.2409 32.943 75.3455 33.9003 75.3455 34.925V36.075C75.3455 36.8831 75.2804 37.6493 75.1591 38.375H85.6V32.05H75.0497ZM24.0727 22.275V33.775H51.4182V22.275H44.1545V29.75H43.3V22.275H38.1727V28.025H37.3182V22.275H32.1909V26.875H31.3364V22.275H24.0727Z" fill="white" stroke="white"/>
</svg>
